<svg width="37" height="46" viewBox="0 0 37 46" fill="none" xmlns="http://www.w3.org/2000/svg">
<path d="M36.1757 6.2959L19.252 0.641601C19.0478 0.573242 18.7739 0.539062 18.5 0.539062C18.2261 0.539062 17.9521 0.573242 17.7479 0.641601L0.824317 6.2959C0.410938 6.43262 0.0722656 6.90137 0.0722656 7.33105V30.8857C0.0722656 31.3154 0.356153 31.8818 0.699805 32.1504L17.8675 45.2656C18.0418 45.3975 18.2659 45.4658 18.495 45.4658C18.7241 45.4658 18.9532 45.3975 19.1226 45.2656L36.2902 32.1504C36.6339 31.8867 36.9178 31.3203 36.9178 30.8857V7.33105C36.9277 6.90137 36.5891 6.4375 36.1757 6.2959V6.2959ZM33.3418 29.9482L18.5 41.2861L3.6582 29.9482V9.06934L18.5 4.1084L33.3418 9.06934V29.9482ZM13.1311 20.1338C12.9816 19.9336 12.7426 19.8115 12.4836 19.8115H9.73437C9.41064 19.8115 9.22139 20.1729 9.41064 20.4316L15.706 28.9277C15.7804 29.0276 15.8778 29.1089 15.9903 29.1649C16.1028 29.2209 16.2272 29.2501 16.3534 29.2501C16.4796 29.2501 16.604 29.2209 16.7165 29.1649C16.829 29.1089 16.9264 29.0276 17.0009 28.9277L27.5894 14.6357C27.7786 14.377 27.5894 14.0156 27.2656 14.0156H24.5164C24.2624 14.0156 24.0184 14.1377 23.8689 14.3379L16.3534 24.4844L13.1311 20.1338Z" fill="#42EA33"/>
</svg>
