<svg width="20" height="20" viewBox="0 0 20 20" fill="none" xmlns="http://www.w3.org/2000/svg">
<path d="M9.492 19.7709C9.786 19.9279 10.155 19.9279 10.449 19.7699C18.461 15.4659 19.03 7.05693 19.023 4.66593C19.0222 4.47376 18.9655 4.28598 18.8596 4.12559C18.7537 3.96521 18.6034 3.83917 18.427 3.76293L10.376 0.197929C10.2479 0.141458 10.1094 0.112377 9.9694 0.11255C9.82939 0.112722 9.69097 0.142143 9.563 0.198929L1.57 3.76493C1.3962 3.84094 1.24796 3.96538 1.14298 4.12338C1.03801 4.28138 0.980732 4.46625 0.978003 4.65593C0.944003 7.03493 1.423 15.4619 9.492 19.7709ZM6.293 7.70693L7.707 6.29293L10 8.58593L12.293 6.29293L13.707 7.70693L11.414 9.99993L13.707 12.2929L12.293 13.7069L10 11.4139L7.707 13.7069L6.293 12.2929L8.586 9.99993L6.293 7.70693Z" fill="#FF2626"/>
</svg>
